<svg width="16" height="16" viewBox="0 0 16 16" fill="none" xmlns="http://www.w3.org/2000/svg">
<g clip-path="url(#clip0_1741_34)">
<rect width="16" height="16" fill="#F0DB4E"/>
<path d="M7.652 15V10.188C7.652 9.956 7.656 9.72 7.664 9.48C7.68 9.232 7.692 9.06 7.7 8.964H7.652C7.636 9.012 7.62 9.1 7.604 9.228L7.472 9.816L6.332 15H5.108L4.052 10.14C3.972 9.852 3.88 9.46 3.776 8.964H3.74C3.748 9.06 3.756 9.236 3.764 9.492C3.78 9.748 3.788 9.98 3.788 10.188V15H2.588V7.44H4.568L5.504 11.604C5.552 11.812 5.608 12.12 5.672 12.528C5.744 12.928 5.788 13.192 5.804 13.32H5.852C5.868 13.184 5.904 12.912 5.96 12.504C6.016 12.088 6.064 11.788 6.104 11.604L7.028 7.44H8.948V15H7.652ZM13.0992 7.44C13.6912 7.44 14.1792 7.616 14.5632 7.968C14.9552 8.312 15.1512 8.76 15.1512 9.312C15.1512 9.736 15.0432 10.1 14.8272 10.404C14.6112 10.7 14.3312 10.908 13.9872 11.028V11.064C14.3792 11.192 14.6992 11.424 14.9472 11.76C15.2032 12.096 15.3312 12.496 15.3312 12.96C15.3312 13.376 15.2312 13.74 15.0312 14.052C14.8312 14.356 14.5592 14.592 14.2152 14.76C13.8792 14.92 13.5072 15 13.0992 15H9.83516V7.44H13.0992ZM12.7032 10.5C13.0232 10.5 13.2712 10.412 13.4472 10.236C13.6232 10.052 13.7112 9.828 13.7112 9.564C13.7112 9.284 13.6232 9.068 13.4472 8.916C13.2792 8.764 13.0552 8.688 12.7752 8.688H11.2512V10.5H12.7032ZM12.8592 13.74C13.1632 13.74 13.4072 13.66 13.5912 13.5C13.7832 13.332 13.8792 13.096 13.8792 12.792C13.8792 12.48 13.7872 12.228 13.6032 12.036C13.4192 11.844 13.1512 11.748 12.7992 11.748H11.2512V13.74H12.8592Z" fill="#323230"/>
</g>
<defs>
<clipPath id="clip0_1741_34">
<rect width="16" height="16" fill="white"/>
</clipPath>
</defs>
</svg>
