<svg
    viewBox="0 0 32 32"
    xmlns="http://www.w3.org/2000/svg"
    xmlns:svg="http://www.w3.org/2000/svg">
    <g id="globe">
        <path
            d="M 16,32 Q 12.68,32 9.76,30.74 6.8399999,29.48 4.68,27.32 2.52,25.16 1.26,22.24 0,19.32 0,16 0,12.68 1.26,9.7600001 2.52,6.84 4.68,4.68 6.8399999,2.52 9.76,1.26 12.68,-9.9999999e-8 16,-9.9999999e-8 q 3.32,0 6.24,1.260000099999999 2.920001,1.26 5.08,3.42 2.16,2.16 3.420001,5.0800001 Q 32,12.68 32,16 32,19.32 30.740001,22.24 29.48,25.16 27.32,27.32 25.160001,29.48 22.24,30.74 19.32,32 16,32 Z M 14.4,28.72 V 25.6 q -1.32,0 -2.260001,-0.94 Q 11.2,23.72 11.2,22.4 V 20.799999 L 3.52,13.12 Q 3.4,13.84 3.3,14.56 3.2,15.28 3.2,16 3.2,20.84 6.3799996,24.48 9.56,28.12 14.4,28.72 Z m 11.04,-4.08 q 0.8,-0.88 1.44,-1.900001 Q 27.52,21.72 27.94,20.62 28.36,19.519999 28.58,18.36 28.800001,17.2 28.800001,16 28.800001,12.08 26.62,8.8400001 24.44,5.6 20.8,4.16 V 4.8 q 0,1.32 -0.939999,2.26 Q 18.92,8 17.6,8 h -3.2 v 3.2 q 0,0.68 -0.460001,1.14 Q 13.48,12.799999 12.8,12.799999 H 9.6 V 16 h 9.6 q 0.68,0 1.14,0.46 0.46,0.459999 0.46,1.14 v 4.8 h 1.6 q 1.04,0 1.88,0.62 0.84,0.619999 1.16,1.62 z"
        />
    </g>
    <g id="code">
        <path
            d="m 4.5200001,16.0496 6.1999989,6.2 q 0.440001,0.44 0.440001,1.12 0,0.68 -0.440001,1.12 -0.439999,0.44 -1.119999,0.44 -0.68,0 -1.12,-0.44 l -7.3599998,-7.36 q -0.2400001,-0.24 -0.3400001,-0.52 -0.1,-0.280001 -0.1,-0.6 0,-0.32 0.1,-0.6 0.1,-0.28 0.3400001,-0.52 L 8.48,7.5296 q 0.48,-0.48 1.14,-0.48 0.66,0 1.14,0.48 0.48,0.48 0.48,1.1400001 0,0.66 -0.48,1.14 z m 22.9600009,-0.08 -6.2,-6.1999999 Q 20.84,9.3296001 20.84,8.6495991 q 0,-0.6799995 0.440001,-1.1199995 0.439999,-0.44 1.119999,-0.44 0.68,0 1.12,0.44 l 7.36,7.3599994 q 0.240001,0.24 0.340001,0.52 0.1,0.280001 0.1,0.600001 0,0.319999 -0.1,0.599999 -0.1,0.28 -0.340001,0.52 L 23.52,24.4896 q -0.48,0.479999 -1.12,0.46 -0.64,-0.02 -1.119999,-0.500001 Q 20.8,23.9696 20.8,23.3096 q 0,-0.660001 0.480001,-1.14 z"
        />
    </g>
    <g id="mail">
        <path
            d="m 3.2000001,28.8 q -1.32,0 -2.2599999,-0.94 Q 1e-7,26.92 1e-7,25.6 V 6.4 Q 1e-7,5.0800002 0.9400002,4.1400001 1.8800001,3.2 3.2000001,3.2 H 28.800001 Q 30.12,3.2 31.06,4.1400001 32,5.0800002 32,6.4 v 19.2 q 0,1.32 -0.94,2.26 -0.94,0.94 -2.259999,0.94 z M 16,17.32 q 0.2,0 0.42,-0.06 0.220001,-0.06 0.42,-0.18 L 28.16,10 q 0.32,-0.1999999 0.48,-0.4999999 0.160001,-0.3 0.160001,-0.66 0,-0.8000002 -0.680001,-1.2000003 -0.68,-0.3999999 -1.399999,0.04 L 16,14.4 5.2799995,7.68 Q 4.5600002,7.24 3.8800002,7.66 3.2000001,8.0800001 3.2000001,8.8400001 q 0,0.4 0.16,0.699999 Q 3.5200002,9.8400001 3.8400002,10 L 15.16,17.08 q 0.199999,0.12 0.42,0.18 0.22,0.06 0.42,0.06 z"
        />
    </g>
    <g id="discord">
        <path
            d="m 27.130991,6.4297476 a 0.08163289,0.08163289 0 0 0 -0.04157,-0.038072 26.398173,26.398173 0 0 0 -6.513547,-2.0193783 0.09883022,0.09883022 0 0 0 -0.104657,0.049548 18.365279,18.365279 0 0 0 -0.810891,1.6653086 24.372753,24.372753 0 0 0 -7.315722,0 A 16.845818,16.845818 0 0 0 11.520927,4.4218444 0.10285744,0.10285744 0 0 0 11.416218,4.3722969 26.32329,26.32329 0 0 0 4.9025662,6.3917326 0.09317034,0.09317034 0 0 0 4.8596928,6.428501 C 0.71117875,12.623782 -0.42526377,18.66674 0.13223669,24.634867 a 0.1097146,0.1097146 0 0 0 0.0416226,0.07483 26.539725,26.539725 0 0 0 7.99049781,4.037511 0.10340167,0.10340167 0 0 0 0.1122742,-0.03676 18.949716,18.949716 0 0 0 1.6346724,-2.658074 0.10122479,0.10122479 0 0 0 -0.05545,-0.140844 17.478854,17.478854 0 0 1 -2.4962246,-1.189285 0.10258535,0.10258535 0 0 1 -0.010032,-0.17012 C 7.517322,24.426463 7.6851615,24.295742 7.8453239,24.163713 a 0.09899349,0.09899349 0 0 1 0.1034056,-0.01392 c 5.2369655,2.390049 10.9066985,2.390049 16.0816825,0 a 0.09861254,0.09861254 0 0 1 0.104709,0.01263 c 0.160221,0.132029 0.328004,0.264003 0.49698,0.389665 a 0.10253092,0.10253092 0 0 1 -0.0088,0.170119 16.403151,16.403151 0 0 1 -2.497426,1.188033 0.10204111,0.10204111 0 0 0 -0.05443,0.142096 21.281968,21.281968 0 0 0 1.633422,2.656604 0.10144248,0.10144248 0 0 0 0.112273,0.03811 26.45167,26.45167 0 0 0 8.003401,-4.037348 0.10242207,0.10242207 0 0 0 0.04163,-0.07357 C 32.529537,17.73639 30.744716,11.742957 27.130991,6.4297998 Z M 10.693388,21.00089 c -1.5767072,0 -2.8758724,-1.446915 -2.8758724,-3.223903 0,-1.776983 1.2739637,-3.224007 2.8758724,-3.224007 1.614426,0 2.901016,1.459598 2.87582,3.223902 0,1.777093 -1.274016,3.224008 -2.87582,3.224008 z m 10.632957,0 c -1.576657,0 -2.875817,-1.446915 -2.875817,-3.223903 0,-1.776983 1.273965,-3.224007 2.875817,-3.224007 1.614536,0 2.901073,1.459598 2.875872,3.223902 0,1.777093 -1.261336,3.224008 -2.875872,3.224008 z"
        />
    </g>
</svg>