<svg width="32" height="32" viewBox="0 0 32 32" fill="none" xmlns="http://www.w3.org/2000/svg">
    <g id="cpp">
        <path
            d="M28.7876 7.35898C29.1209 7.54839 29.4241 7.87545 29.6439 8.24996C29.8637 8.62437 30 9.04618 30 9.425V22.5748C30 22.9536 29.8636 23.3755 29.6439 23.75C29.4242 24.1245 29.1211 24.4515 28.7877 24.6409L17.2125 31.2158C16.5458 31.5946 15.4545 31.5946 14.7877 31.2158L3.21255 24.6409C2.8792 24.4516 2.57592 24.1244 2.35622 23.75C2.13643 23.3755 2 22.9537 2 22.5749V9.42505C2 8.66749 2.54554 7.73772 3.21242 7.35898L14.7876 0.784118C15.4544 0.405294 16.5456 0.405294 17.2124 0.784118L28.7876 7.35898Z"
            fill="black" />
        <path
            d="M15.9998 25.1824C10.8534 25.1824 6.6665 21.0632 6.6665 15.9999C6.6665 10.9366 10.8534 6.81738 15.9998 6.81738C19.3207 6.81738 22.4178 8.57556 24.0824 11.4058L20.0432 13.7054C19.21 12.2887 17.6606 11.4086 15.9998 11.4086C13.4266 11.4086 11.3332 13.4682 11.3332 15.9999C11.3332 18.5315 13.4266 20.5912 15.9998 20.5912C17.6608 20.5912 19.2102 19.7111 20.0435 18.2942L24.0827 20.5937C22.4181 23.4241 19.3209 25.1824 15.9998 25.1824Z"
            fill="white" />
        <path
            d="M25.3333 15.4897H24.2962V14.4695H23.2593V15.4897H22.2222V16.51H23.2593V17.5303H24.2962V16.51H25.3333V15.4897Z"
            fill="white" />
        <path
            d="M29.2224 15.4897H28.1853V14.4695H27.1484V15.4897H26.1113V16.51H27.1484V17.5303H28.1853V16.51H29.2224V15.4897Z"
            fill="white" />
    </g>
    <g id="ffmpeg">
        <path
            d="M3 3H11.6667L3 11.6667V20.3333L20.3333 3H29L3 29H11.6667L29 11.6667V20.3333L20.3333 29H29"
            stroke="black" stroke-width="4" stroke-linecap="round" stroke-linejoin="round"
            fill="none" />
    </g>
    <g id="graphql">
        <path d="M4.29376 23.4295L5.36621 24.0425L17.3137 3.55678L16.2412 2.94379L4.29376 23.4295Z"
            fill="black" />
        <path d="M27.9438 21.793H4.04883V23.0189H27.9438V21.793Z" fill="black" />
        <path d="M4.52119 22.4817L16.4731 29.3132L17.0923 28.2515L5.14038 21.42L4.52119 22.4817Z"
            fill="black" />
        <path d="M14.9045 4.67678L26.8564 11.5083L27.4756 10.4466L15.5237 3.61508L14.9045 4.67678Z"
            fill="black" />
        <path d="M4.52436 10.4422L5.14355 11.5039L17.0955 4.67238L16.4763 3.61068L4.52436 10.4422Z"
            fill="black" />
        <path d="M14.6883 3.55703L26.6357 24.0427L27.7082 23.4297L15.7607 2.94404L14.6883 3.55703Z"
            fill="black" />
        <path d="M6.23497 9.62915H4.99658V23.2922H6.23497V9.62915Z" fill="black" />
        <path d="M27.004 9.62915H25.7656V23.2922H27.004V9.62915Z" fill="black" />
        <path d="M15.7223 27.8668L16.2632 28.7942L26.6582 22.8526L26.1173 21.9252L15.7223 27.8668Z"
            fill="black" />
        <path
            d="M28.6448 23.691C27.9286 24.9244 26.3321 25.3453 25.0862 24.6363C23.8404 23.9273 23.4152 22.3468 24.1313 21.1135C24.8475 19.8801 26.444 19.4591 27.6898 20.1681C28.9432 20.8845 29.3684 22.4576 28.6448 23.691Z"
            fill="black" />
        <path
            d="M7.86106 11.8079C7.14488 13.0413 5.5484 13.4623 4.30255 12.7533C3.0567 12.0443 2.63147 10.4638 3.34765 9.23042C4.06383 7.99705 5.66031 7.57608 6.90616 8.28508C8.15201 9.00147 8.57724 10.5746 7.86106 11.8079Z"
            fill="black" />
        <path
            d="M3.35497 23.691C2.6388 22.4576 3.06403 20.8845 4.30988 20.1681C5.55573 19.4591 7.14475 19.8801 7.86838 21.1135C8.58456 22.3468 8.15933 23.9199 6.91348 24.6363C5.66017 25.3453 4.07115 24.9244 3.35497 23.691Z"
            fill="black" />
        <path
            d="M24.1392 11.8079C23.423 10.5746 23.8482 9.00147 25.0941 8.28508C26.3399 7.57608 27.9289 7.99705 28.6526 9.23042C29.3687 10.4638 28.9435 12.0369 27.6977 12.7533C26.4518 13.4623 24.8553 13.0413 24.1392 11.8079Z"
            fill="black" />
        <path
            d="M16.0001 30.9214C14.5603 30.9214 13.3965 29.7693 13.3965 28.3439C13.3965 26.9185 14.5603 25.7664 16.0001 25.7664C17.4399 25.7664 18.6037 26.9185 18.6037 28.3439C18.6037 29.7619 17.4399 30.9214 16.0001 30.9214Z"
            fill="black" />
        <path
            d="M16.0001 7.15503C14.5603 7.15503 13.3965 6.0029 13.3965 4.57752C13.3965 3.15213 14.5603 2 16.0001 2C17.4399 2 18.6037 3.15213 18.6037 4.57752C18.6037 6.0029 17.4399 7.15503 16.0001 7.15503Z"
            fill="black" />
    </g>
    <g id="js">
        <rect width="32" height="32" fill="white" />
        <path fill-rule="evenodd" clip-rule="evenodd"
            d="M0 0H32V32H0V0ZM23.9689 26.3266C22.492 26.3266 21.6569 25.5516 21.0151 24.4973L18.5817 25.9195C19.4608 27.6668 21.2573 29 24.0382 29C26.8822 29 29 27.5142 29 24.8021C29 22.2864 27.5635 21.1675 25.0194 20.0699L24.2708 19.7473C22.9861 19.1876 22.4298 18.8217 22.4298 17.918C22.4298 17.1868 22.9856 16.6271 23.8627 16.6271C24.7225 16.6271 25.2764 16.992 25.7897 17.918L28.1214 16.4119C27.1351 14.6666 25.7665 14 23.8627 14C21.1885 14 19.4774 15.7199 19.4774 17.9791C19.4774 20.4317 20.9129 21.5918 23.0736 22.5179L23.8222 22.841C25.1878 23.442 26.0022 23.8078 26.0022 24.8408C26.0022 25.7027 25.2096 26.3266 23.9689 26.3266ZM12.3645 26.3077C11.3357 26.3077 10.9078 25.5979 10.4374 24.7583L8 26.2429C8.70609 27.7462 10.0945 28.9944 12.4919 28.9944C15.1453 28.9944 16.9632 27.5747 16.9632 24.4556V14.172H13.9689V24.4149C13.9689 25.9205 13.3482 26.3077 12.3645 26.3077Z"
            fill="black" />
    </g>
    <g id="meili">
        <path
            d="M1 25L6.64867 11.22C7.44469 9.27808 9.40779 8 11.5944 8H15L9.3513 21.78C8.55529 23.7219 6.59218 25 4.40551 25H1Z"
            fill="black" />
        <path
            d="M9 25L14.6487 11.22C15.4447 9.27808 17.4078 8 19.5944 8H23L17.3513 21.78C16.5553 23.722 14.5922 25 12.4055 25H9Z"
            fill="black" />
        <path
            d="M17 25L22.6487 11.22C23.4447 9.27808 25.4078 8 27.5945 8H31L25.3513 21.78C24.5553 23.722 22.5922 25 20.4056 25H17Z"
            fill="black" />

    </g>
    <g id="mongo">
        <path
            d="M21.0288 8.93504C15.2034 2.68035 10.6333 2.75845 8.96659 1.91076C8.25723 1.52297 7.57582 1.0876 6.92701 0.607623C7.25034 1.27537 7.39774 1.72857 7.12509 2.53392C6.57731 4.15033 4.04517 10.6591 8.38018 19.0844C12.4223 26.9397 21.2184 28.1442 22.3023 28.1678C23.0922 28.1105 23.6749 27.3838 23.8831 26.8977C25.6692 23.2277 26.6246 15.6413 21.032 8.93316"
            fill="black" />
        <path
            d="M20.6074 23.7209C21.5465 25.7007 22.0714 26.863 22.3071 28.168C22.3071 28.168 23.6017 29.8216 24.882 31.6257L25.5154 31.26C24.891 29.8295 24.3519 28.3629 23.9008 26.8677C22.8514 26.9438 21.5971 25.3625 20.6074 23.7209Z"
            fill="black" />
        <path
            d="M23.699 26.7063C22.6526 26.8078 21.3935 25.1807 20.407 23.5573C19.0455 20.7258 17.5338 17.9693 15.8781 15.2995C15.0109 13.8976 8.26849 2.07172 6.89453 0.563721C7.49025 0.999196 8.11509 1.39439 8.76492 1.74666C10.4322 2.59542 15.0034 2.5167 20.8277 8.77201C26.4162 15.4654 25.4745 23.0254 23.699 26.7063Z"
            fill="black" />
    </g>
    <g id="nest">
        <path fill-rule="evenodd" clip-rule="evenodd"
            d="M18.842 0C18.6106 0 18.3957 0.0497812 18.1974 0.116152C18.6188 0.398235 18.8502 0.771584 18.9659 1.19471C18.9742 1.25278 18.9907 1.29427 18.999 1.35234C19.0073 1.40212 19.0155 1.4519 19.0155 1.50168C19.0486 2.23178 18.8254 2.32304 18.6684 2.75447C18.4288 3.31034 18.4949 3.90769 18.7841 4.3889C18.8089 4.44697 18.842 4.51334 18.8833 4.57142C18.5693 2.47238 20.313 2.15711 20.6353 1.50168C20.6601 0.929218 20.189 0.547575 19.8171 0.282084C19.4618 0.066373 19.1395 0 18.842 0ZM21.4699 0.472906C21.4369 0.663727 21.4617 0.613947 21.4534 0.713507C21.4451 0.779878 21.4451 0.862846 21.4369 0.929218C21.4204 0.995591 21.4038 1.06196 21.3791 1.12834C21.3625 1.19471 21.3377 1.26108 21.3129 1.32745C21.2799 1.39383 21.2551 1.4519 21.222 1.51828C21.1972 1.55148 21.1807 1.58465 21.1559 1.61784C21.1394 1.64272 21.1229 1.66761 21.1063 1.6925C21.065 1.75058 21.0237 1.80866 20.9824 1.85844C20.9328 1.90822 20.8915 1.96629 20.8336 2.00778V2.01608C20.784 2.05757 20.7345 2.10735 20.6766 2.14883C20.5031 2.28157 20.3047 2.38113 20.1229 2.50558C20.0651 2.54706 20.0072 2.58025 19.9576 2.63003C19.8998 2.67151 19.8502 2.71299 19.8006 2.76277C19.7428 2.81255 19.7015 2.86233 19.6519 2.92041C19.6105 2.97019 19.561 3.02827 19.5279 3.08634C19.4866 3.14442 19.4453 3.20249 19.4122 3.26057C19.3791 3.32694 19.3544 3.38502 19.3213 3.45139C19.2965 3.51776 19.2717 3.57584 19.2552 3.64221C19.2304 3.71688 19.2139 3.78325 19.1973 3.84963C19.1891 3.88283 19.1891 3.9243 19.1808 3.95748C19.1725 3.99068 19.1725 4.02385 19.1643 4.05704C19.1643 4.12341 19.156 4.19808 19.156 4.26446C19.156 4.31424 19.156 4.36402 19.1643 4.4138C19.1643 4.48017 19.1726 4.54654 19.1891 4.62121C19.1974 4.68758 19.2139 4.75395 19.2304 4.82033C19.2552 4.8867 19.2718 4.95307 19.2965 5.01944C19.3131 5.06093 19.3379 5.10241 19.3544 5.1356L17.4537 4.3972C17.1314 4.30594 16.8173 4.22298 16.495 4.1483C16.3215 4.10682 16.1479 4.06534 15.9744 4.02386C15.4785 3.9243 14.9744 3.84963 14.4703 3.79985C14.4538 3.79985 14.4455 3.79154 14.429 3.79154C13.9332 3.74176 13.4456 3.71687 12.9498 3.71687C12.5861 3.71687 12.2225 3.73345 11.8672 3.75835C11.3631 3.79155 10.8589 3.85792 10.3548 3.94088C10.2309 3.95746 10.1069 3.98237 9.98296 4.00725C9.72677 4.05703 9.47885 4.11511 9.23919 4.17319C9.11523 4.20639 8.99127 4.23956 8.86731 4.27274C8.74335 4.32252 8.62766 4.3806 8.51195 4.43038C8.42105 4.47186 8.33015 4.51334 8.23924 4.55483C8.22273 4.56314 8.20617 4.56314 8.19792 4.57141C8.11528 4.61289 8.0409 4.64607 7.96653 4.68756C7.94174 4.69587 7.92521 4.70414 7.90868 4.71245C7.81778 4.75393 7.72687 4.80371 7.6525 4.84519C7.59465 4.87008 7.5368 4.90327 7.48722 4.92816C7.46242 4.94474 7.42937 4.96136 7.41284 4.96965C7.33846 5.01113 7.26409 5.05261 7.19797 5.09409C7.1236 5.13558 7.05748 5.17706 6.99963 5.21854C6.94179 5.26003 6.88394 5.29321 6.83435 5.33469C6.82607 5.343 6.81784 5.343 6.80956 5.35127C6.75998 5.38447 6.70213 5.42594 6.65255 5.46743C6.65255 5.46743 6.64427 5.47573 6.63603 5.48401C6.59471 5.51721 6.55339 5.55038 6.51207 5.58356C6.49555 5.59187 6.479 5.60845 6.46248 5.61676C6.42117 5.64996 6.37985 5.69143 6.33853 5.72462C6.33025 5.7412 6.31373 5.74951 6.30546 5.75782C6.25587 5.8076 6.20629 5.84908 6.1567 5.89886C6.14843 5.89886 6.14843 5.90717 6.14019 5.91544C6.0906 5.95693 6.04102 6.0067 5.99143 6.05649C5.98316 6.06479 5.98316 6.07306 5.97492 6.07306C5.9336 6.11455 5.89228 6.15603 5.85096 6.20581C5.83444 6.22239 5.80964 6.23901 5.79311 6.25559C5.75179 6.30537 5.70221 6.35515 5.65262 6.40493C5.64434 6.42151 5.62783 6.42982 5.61955 6.44641C5.55344 6.51279 5.49559 6.57916 5.42948 6.64553C5.4212 6.65384 5.41297 6.66211 5.40469 6.67042C5.27246 6.81146 5.13197 6.9525 4.98322 7.07695C4.83447 7.20969 4.67745 7.33414 4.52043 7.442C4.35515 7.55816 4.19814 7.65771 4.02459 7.75727C3.85931 7.84853 3.68576 7.9315 3.50396 8.00617C3.33041 8.08084 3.1486 8.14721 2.96679 8.20529C2.6197 8.27995 2.26435 8.421 1.95858 8.44589C1.89247 8.44589 1.81809 8.46247 1.75198 8.47078C1.6776 8.48736 1.61149 8.50398 1.54538 8.52056C1.47927 8.54545 1.41315 8.57034 1.34704 8.59522C1.28093 8.62011 1.21482 8.6533 1.1487 8.68649C1.09085 8.72797 1.02474 8.76116 0.966893 8.80264C0.909046 8.84412 0.851196 8.8939 0.801612 8.94368C0.743765 8.98517 0.685916 9.04324 0.636331 9.09302C0.586746 9.1511 0.537162 9.20088 0.495842 9.25895C0.454523 9.32532 0.404938 9.3834 0.371881 9.44977C0.330561 9.50785 0.289242 9.57422 0.256184 9.64059C0.223115 9.71527 0.190073 9.78164 0.16528 9.85631C0.140488 9.92268 0.115696 9.99735 0.0909034 10.072C0.0743883 10.1384 0.0578341 10.2048 0.0495843 10.2711C0.0495843 10.2795 0.0413075 10.2877 0.0413075 10.296C0.0247922 10.3707 0.0247921 10.4703 0.016515 10.52C0.00823827 10.5781 0 10.6279 0 10.686C0 10.7192 2.57266e-08 10.7606 0.00827679 10.7938C0.0165536 10.8519 0.0247918 10.9017 0.0413461 10.9515C0.0578613 11.0012 0.0744155 11.051 0.0991923 11.1008V11.1091C0.123985 11.1589 0.157042 11.2087 0.190096 11.2584C0.223166 11.3082 0.256212 11.358 0.297531 11.4078C0.33885 11.4493 0.388435 11.499 0.438019 11.5405C0.487604 11.5903 0.537189 11.6318 0.595035 11.6733C0.793373 11.8475 0.842958 11.9056 1.09914 12.0383C1.14046 12.0632 1.18179 12.0798 1.23137 12.1047C1.23965 12.1047 1.24789 12.113 1.25616 12.113C1.25616 12.1296 1.25616 12.1379 1.26444 12.1545C1.27272 12.2209 1.28923 12.2872 1.30576 12.3536C1.32227 12.4283 1.34708 12.4947 1.37188 12.5527C1.39667 12.6025 1.41319 12.6523 1.43799 12.7021C1.44626 12.7186 1.4545 12.7353 1.46278 12.7435C1.49585 12.8099 1.52889 12.868 1.56194 12.9261C1.60327 12.9841 1.64459 13.0422 1.68591 13.1003C1.72723 13.1501 1.77681 13.2082 1.82639 13.2579C1.87598 13.3077 1.92556 13.3492 1.98341 13.399C1.98341 13.399 1.99169 13.4073 1.99993 13.4073C2.04951 13.4488 2.0991 13.4903 2.14868 13.5234C2.20653 13.5649 2.26438 13.5981 2.33049 13.6313C2.38834 13.6645 2.45445 13.6977 2.52056 13.7226C2.57015 13.7475 2.62799 13.764 2.68585 13.7806C2.69412 13.789 2.70236 13.789 2.71891 13.7972C2.75198 13.8055 2.79329 13.8138 2.82635 13.8221C2.80155 14.2701 2.79328 14.6933 2.85941 14.8426C2.93379 15.0085 3.29741 14.5024 3.66103 13.9217C3.61144 14.4941 3.57838 15.1662 3.66103 15.3653C3.75193 15.5727 4.24777 14.9256 4.6775 14.2121C10.5367 12.8514 15.8836 16.9167 16.4455 22.658C16.3381 21.7619 15.239 21.2641 14.7349 21.3886C14.4869 22.0025 14.0655 22.7907 13.3878 23.2802C13.4457 22.7326 13.4209 22.1685 13.3052 21.6209C13.1234 22.3842 12.768 23.0977 12.2804 23.7116C11.4953 23.7697 10.7103 23.3881 10.2971 22.8156C10.264 22.7907 10.2557 22.7409 10.2309 22.7078C10.2061 22.6497 10.1814 22.5916 10.1648 22.5335C10.14 22.4755 10.1235 22.4174 10.1152 22.3593C10.107 22.3012 10.107 22.2431 10.107 22.1768C10.107 22.1353 10.107 22.0938 10.107 22.0523C10.1152 21.9942 10.1318 21.9362 10.1483 21.8781C10.1648 21.82 10.1814 21.7619 10.2061 21.7039C10.2392 21.6458 10.264 21.5877 10.3053 21.5296C10.4458 21.1314 10.4458 20.8078 10.1896 20.617C10.14 20.5838 10.0904 20.5589 10.0326 20.534C9.99952 20.5257 9.95821 20.5092 9.92516 20.5009C9.90037 20.4925 9.88384 20.4843 9.85905 20.476C9.8012 20.4594 9.74335 20.4428 9.6855 20.4345C9.62765 20.4179 9.56981 20.4096 9.51196 20.4096C9.45411 20.4013 9.38799 20.393 9.33015 20.393C9.28883 20.393 9.24751 20.4013 9.20619 20.4013C9.14008 20.4013 9.08223 20.4096 9.02438 20.4262C8.96653 20.4345 8.90868 20.4428 8.85083 20.4594C8.79299 20.476 8.73514 20.4926 8.67729 20.5175C8.61944 20.5424 8.56986 20.5673 8.51201 20.5922C8.46242 20.617 8.41284 20.6502 8.35499 20.6751C6.42947 21.9362 7.57817 24.8898 8.89215 25.7443C8.39631 25.8356 7.89221 25.9435 7.75172 26.0513C7.74344 26.0596 7.7352 26.0679 7.7352 26.0679C8.09056 26.2836 8.46244 26.4661 8.85084 26.6238C9.37975 26.798 9.9417 26.9556 10.1896 27.022V27.0303C10.8755 27.1713 11.5697 27.2211 12.2722 27.1796C15.9331 26.9224 18.933 24.1265 19.4784 20.4428C19.4949 20.5175 19.5115 20.5838 19.528 20.6585C19.5528 20.8079 19.5858 20.9655 19.6024 21.1231V21.1314C19.6189 21.2061 19.6272 21.2808 19.6354 21.3472V21.3804C19.6437 21.455 19.652 21.5297 19.652 21.5961C19.6602 21.6873 19.6685 21.7786 19.6685 21.8699V22.0026C19.6685 22.0441 19.6767 22.0939 19.6767 22.1353C19.6767 22.1851 19.6685 22.2349 19.6685 22.2847V22.4008C19.6685 22.4589 19.6602 22.5087 19.6602 22.5668C19.6602 22.6 19.6602 22.6331 19.6519 22.6746C19.6519 22.7327 19.6436 22.7908 19.6436 22.8571C19.6354 22.882 19.6354 22.9069 19.6354 22.9318C19.6271 22.9982 19.6188 23.0563 19.6106 23.1226C19.6106 23.1475 19.6106 23.1724 19.6023 23.1973C19.594 23.2803 19.5775 23.3549 19.5692 23.4379V23.4462V23.4545C19.5527 23.5292 19.5361 23.6122 19.5196 23.6868V23.7117C19.5031 23.7864 19.4866 23.8611 19.47 23.9357C19.47 23.9441 19.4618 23.9606 19.4618 23.9689C19.4453 24.0436 19.4287 24.1183 19.4039 24.1929V24.2178C19.3791 24.3008 19.3543 24.3755 19.3378 24.4501C19.3295 24.4584 19.3295 24.4667 19.3295 24.4667C19.3047 24.5497 19.28 24.6326 19.2552 24.7156C19.2221 24.7986 19.1973 24.8733 19.1643 24.9562C19.1312 25.0392 19.1064 25.1222 19.0734 25.1968C19.0403 25.2798 19.0072 25.3545 18.9742 25.4374H18.9659C18.9328 25.5121 18.8998 25.5951 18.8585 25.6697C18.8502 25.6946 18.8419 25.7112 18.8337 25.7278C18.8254 25.7361 18.8254 25.7444 18.8172 25.7527C18.28 26.8395 17.4866 27.7936 16.495 28.5403C16.4288 28.5818 16.3627 28.6316 16.2966 28.6814C16.2801 28.698 16.2553 28.7063 16.2388 28.7229C16.1809 28.7643 16.1231 28.8058 16.057 28.8473L16.0818 28.8971H16.09C16.2057 28.8805 16.3214 28.8639 16.4371 28.8473H16.4454C16.6603 28.8141 16.8751 28.7726 17.09 28.7312C17.1478 28.7228 17.214 28.7063 17.2718 28.6897C17.3131 28.6814 17.3462 28.6731 17.3875 28.6648C17.4453 28.6565 17.5032 28.6399 17.561 28.6316C17.6106 28.615 17.6602 28.6067 17.7098 28.5901C18.5362 28.391 19.3378 28.1172 20.1064 27.7936C18.7924 29.594 17.0321 31.0459 14.9744 32C15.9248 31.9336 16.8751 31.776 17.7924 31.5105C21.1229 30.5232 23.9244 28.2748 25.602 25.2466C25.2631 27.1631 24.5028 28.9883 23.3789 30.5813C24.1805 30.0503 24.916 29.4364 25.5854 28.7394C27.4366 26.798 28.6514 24.334 29.0646 21.6873C29.3456 22.9982 29.4282 24.3506 29.3043 25.6863C35.2709 17.3316 29.8001 8.67 27.511 6.38844C27.5027 6.37186 27.4944 6.36355 27.4944 6.34696C27.4862 6.35527 27.4862 6.35527 27.4862 6.36354C27.4862 6.35523 27.4862 6.35523 27.4779 6.34696C27.4779 6.44652 27.4696 6.54608 27.4614 6.64564C27.4366 6.83646 27.4118 7.01898 27.3787 7.20151C27.3374 7.38403 27.2878 7.56655 27.2382 7.74908C27.1804 7.92331 27.1143 8.10583 27.0399 8.28006C26.9655 8.44599 26.8829 8.62022 26.792 8.78616C26.7011 8.94379 26.6019 9.10972 26.4945 9.25906C26.387 9.4167 26.2713 9.56603 26.1556 9.70707C26.0317 9.85642 25.8995 9.98916 25.7672 10.1219C25.6846 10.1966 25.6102 10.2629 25.5276 10.3293C25.4615 10.3874 25.4036 10.4372 25.3375 10.4952C25.1888 10.6114 25.04 10.7193 24.8747 10.8188C24.7177 10.9184 24.5524 11.0179 24.3871 11.1009C24.2136 11.1839 24.0401 11.2585 23.8665 11.3332C23.693 11.3996 23.5112 11.4577 23.3293 11.5074C23.1475 11.5572 22.9575 11.5987 22.7757 11.6319C22.5856 11.6651 22.3955 11.6817 22.2137 11.6983C22.0815 11.7066 21.9492 11.7148 21.817 11.7148C21.6269 11.7148 21.4369 11.6983 21.2551 11.6816C21.065 11.6651 20.8749 11.6402 20.6931 11.5987C20.503 11.5655 20.3212 11.5157 20.1394 11.4576H20.1311C20.313 11.4411 20.4948 11.4244 20.6766 11.3913C20.8666 11.3581 21.0485 11.3166 21.2303 11.2668C21.4121 11.217 21.5939 11.1589 21.7674 11.0926C21.9492 11.0262 22.1228 10.9432 22.2881 10.8603C22.4616 10.7773 22.6186 10.686 22.7839 10.5865C22.9409 10.4786 23.0979 10.3708 23.2467 10.2546C23.3954 10.1385 23.5359 10.014 23.6682 9.88128C23.8086 9.75683 23.9326 9.61579 24.0566 9.47474C24.1805 9.32541 24.2962 9.17607 24.4037 9.02673C24.4202 9.00184 24.4367 8.96866 24.4532 8.94376C24.5359 8.81102 24.6185 8.67827 24.6929 8.54553C24.7838 8.37959 24.8664 8.21366 24.9408 8.03944C25.0152 7.86521 25.0813 7.69098 25.1392 7.50846C25.197 7.33422 25.2383 7.1517 25.2796 6.96918C25.3127 6.77836 25.3458 6.59583 25.3623 6.41331C25.3788 6.22249 25.3954 6.03166 25.3954 5.84914C25.3954 5.71639 25.3871 5.58365 25.3788 5.4509C25.3623 5.26008 25.3375 5.07756 25.3127 4.89503C25.2797 4.70421 25.2384 4.52169 25.1888 4.33916C25.1309 4.16493 25.0731 3.98241 25.007 3.80818C24.9408 3.63395 24.8582 3.45972 24.7756 3.29379C24.6847 3.12786 24.5938 2.96193 24.4946 2.80429C24.3872 2.64666 24.2797 2.49732 24.164 2.34798C24.0401 2.20694 23.9161 2.0659 23.7839 1.92485C23.7178 1.85848 23.6434 1.78381 23.569 1.71744C23.1971 1.42706 22.8087 1.15327 22.4203 0.904374C22.3625 0.871176 22.3129 0.846297 22.255 0.821406C21.9823 0.64718 21.7261 0.555869 21.4699 0.472906Z"
            fill="black" />
    </g>
    <g id="rust">
        <path
            d="M30.7989 15.6352L29.5202 14.8435C29.5103 14.7264 29.5003 14.6133 29.488 14.499L30.585 13.4735C30.6385 13.4234 30.6784 13.3606 30.7008 13.2908C30.7232 13.221 30.7275 13.1467 30.7132 13.0748C30.6989 13.0029 30.6665 12.9359 30.619 12.8801C30.5715 12.8242 30.5106 12.7814 30.442 12.7557L29.0356 12.2283C29.004 12.1181 28.9723 12.0068 28.9378 11.8978L29.8168 10.6772C29.8595 10.6176 29.8863 10.5481 29.8947 10.4753C29.9031 10.4024 29.8928 10.3286 29.8646 10.2609C29.8365 10.1932 29.7916 10.1338 29.7341 10.0883C29.6766 10.0428 29.6084 10.0127 29.5361 10.0009L28.0465 9.75774C27.9937 9.65637 27.9416 9.55558 27.8865 9.45596L28.5123 8.08357C28.5427 8.01679 28.5556 7.94335 28.5496 7.87021C28.5437 7.79708 28.5191 7.72668 28.4783 7.66569C28.4375 7.60471 28.3818 7.55515 28.3165 7.52173C28.2512 7.48831 28.1784 7.47213 28.1051 7.47473L26.5921 7.52805C26.5221 7.44133 26.4516 7.35538 26.3805 7.27022L26.7251 5.79587C26.7417 5.72446 26.7399 5.64998 26.7198 5.57947C26.6997 5.50896 26.6619 5.44474 26.61 5.39289C26.5582 5.34104 26.494 5.30326 26.4235 5.28314C26.353 5.26301 26.2785 5.26119 26.2071 5.27785L24.7327 5.62534C24.6479 5.55385 24.562 5.48334 24.4749 5.4138L24.5282 3.90078C24.5313 3.8272 24.5155 3.75406 24.4823 3.68833C24.4491 3.62261 24.3996 3.56649 24.3385 3.52535C24.2775 3.4842 24.2069 3.4594 24.1335 3.45332C24.0601 3.44723 23.9864 3.46006 23.9194 3.49058L22.547 4.11935C22.4474 4.06427 22.346 4.01153 22.2452 3.95938L22.002 2.46979C21.9902 2.39742 21.9602 2.32926 21.9147 2.27176C21.8692 2.21426 21.8097 2.16933 21.742 2.14122C21.6743 2.11311 21.6005 2.10275 21.5277 2.11113C21.4548 2.11951 21.3853 2.14635 21.3258 2.1891L20.1034 3.06633C19.9944 3.03175 19.8836 3.00011 19.7729 2.96847L19.2455 1.56209C19.2198 1.49347 19.177 1.43255 19.1211 1.3851C19.0653 1.33765 18.9982 1.30523 18.9264 1.29091C18.8545 1.2766 18.7802 1.28086 18.7104 1.30329C18.6406 1.32572 18.5777 1.36559 18.5277 1.41911L17.5022 2.51608C17.3879 2.50378 17.2731 2.49382 17.1576 2.48385L16.3677 1.20405C16.3291 1.14166 16.2752 1.09017 16.2111 1.05446C16.147 1.01874 16.0748 1 16.0015 1C15.9281 1 15.8559 1.01874 15.7918 1.05446C15.7277 1.09017 15.6738 1.14166 15.6352 1.20405L14.8435 2.48268C14.7264 2.49264 14.6133 2.50261 14.499 2.51491L13.4735 1.41794C13.4234 1.36442 13.3606 1.32455 13.2908 1.30212C13.221 1.27969 13.1467 1.27543 13.0748 1.28974C13.0029 1.30406 12.9359 1.33648 12.8801 1.38393C12.8242 1.43138 12.7814 1.4923 12.7557 1.56092L12.2283 2.9673C12.1175 2.99953 12.0062 3.03058 11.8966 3.06574L10.6766 2.18676C10.617 2.14401 10.5475 2.11717 10.4747 2.10879C10.4018 2.10041 10.3281 2.11077 10.2603 2.13887C10.1926 2.16698 10.1332 2.21192 10.0877 2.26942C10.0422 2.32691 10.0121 2.39508 10.0003 2.46745L9.75716 3.95645C9.65578 4.00919 9.55499 4.06134 9.45479 4.11642L8.08357 3.49351C8.01656 3.46299 7.94284 3.45016 7.86945 3.45625C7.79606 3.46233 7.72546 3.48713 7.66439 3.52828C7.60332 3.56942 7.55382 3.62554 7.52061 3.69126C7.48741 3.75699 7.47161 3.83013 7.47473 3.90371L7.52864 5.41615C7.44133 5.48588 7.35284 5.5562 7.26963 5.62769L5.79587 5.27785C5.72446 5.26119 5.64998 5.26301 5.57947 5.28314C5.50896 5.30326 5.44474 5.34104 5.39289 5.39289C5.34104 5.44474 5.30326 5.50896 5.28314 5.57947C5.26301 5.64998 5.26119 5.72446 5.27785 5.79587L5.62534 7.27022C5.55327 7.35519 5.48295 7.44191 5.41322 7.52864L3.90078 7.47531C3.8275 7.47311 3.75485 7.48946 3.68959 7.52286C3.62433 7.55626 3.56857 7.60562 3.5275 7.66635C3.48682 7.72738 3.46239 7.7978 3.45655 7.87092C3.4507 7.94403 3.46363 8.01743 3.4941 8.08416L4.11877 9.45596C4.06368 9.55558 4.01153 9.65695 3.95879 9.75833L2.46979 10.0009C2.39742 10.0127 2.32926 10.0428 2.27176 10.0883C2.21426 10.1338 2.16933 10.1932 2.14122 10.2609C2.11311 10.3286 2.10275 10.4024 2.11113 10.4753C2.11951 10.5481 2.14635 10.6176 2.1891 10.6772L3.06809 11.8972C3.03351 12.0068 3.00187 12.1181 2.96964 12.2289L1.56326 12.7563C1.49465 12.782 1.43373 12.8248 1.38627 12.8806C1.33882 12.9365 1.3064 13.0035 1.29209 13.0754C1.27777 13.1473 1.28203 13.2216 1.30446 13.2914C1.3269 13.3611 1.36676 13.424 1.42028 13.4741L2.51726 14.4996C2.50495 14.6138 2.49499 14.7287 2.48503 14.8441L1.20405 15.6352C1.14166 15.6738 1.09017 15.7277 1.05446 15.7918C1.01874 15.8559 1 15.9281 1 16.0015C1 16.0748 1.01874 16.147 1.05446 16.2111C1.09017 16.2752 1.14166 16.3291 1.20405 16.3677L2.48268 17.1594C2.49264 17.2766 2.50261 17.3891 2.51491 17.5034L1.41794 18.5288C1.36442 18.5789 1.32455 18.6418 1.30212 18.7116C1.27969 18.7813 1.27543 18.8557 1.28974 18.9275C1.30406 18.9994 1.33648 19.0664 1.38393 19.1223C1.43138 19.1781 1.4923 19.2209 1.56092 19.2467L2.9673 19.7741C2.99953 19.8848 3.03058 19.9956 3.06574 20.1052L2.18676 21.3258C2.14401 21.3853 2.11717 21.4548 2.10879 21.5277C2.10041 21.6005 2.11077 21.6743 2.13887 21.742C2.16698 21.8097 2.21192 21.8692 2.26942 21.9147C2.32691 21.9602 2.39508 21.9902 2.46745 22.002L3.95703 22.2452C4.00977 22.346 4.06192 22.4474 4.11701 22.5464L3.4941 23.9194C3.46363 23.9861 3.4507 24.0595 3.45655 24.1326C3.46239 24.2057 3.48682 24.2761 3.5275 24.3372C3.56737 24.3991 3.62289 24.4494 3.68844 24.4829C3.75399 24.5165 3.82724 24.5321 3.90078 24.5282L5.41439 24.4749C5.48354 24.5616 5.55385 24.6475 5.62534 24.7327L5.27785 26.2071C5.26119 26.2785 5.26301 26.353 5.28314 26.4235C5.30326 26.494 5.34104 26.5582 5.39289 26.61C5.44474 26.6619 5.50896 26.6997 5.57947 26.7198C5.64998 26.7399 5.72446 26.7417 5.79587 26.7251L7.27022 26.3776C7.35538 26.4491 7.44152 26.5196 7.52864 26.5891L7.47473 28.1022C7.47213 28.1755 7.48831 28.2483 7.52173 28.3136C7.55515 28.3789 7.60471 28.4346 7.66569 28.4754C7.72668 28.5162 7.79708 28.5407 7.87021 28.5467C7.94335 28.5526 8.01679 28.5398 8.08357 28.5094L9.45655 27.8836C9.55558 27.9387 9.65695 27.9908 9.75774 28.0436L10.0009 29.5331C10.0126 29.6055 10.0427 29.6738 10.0882 29.7313C10.1337 29.7888 10.1932 29.8337 10.2609 29.8618C10.3287 29.8899 10.4025 29.9001 10.4754 29.8916C10.5482 29.8831 10.6177 29.8562 10.6772 29.8132L11.8978 28.9343C12.0068 28.9694 12.1181 29.0005 12.2289 29.0327L12.7563 30.4391C12.7821 30.5076 12.825 30.5684 12.8808 30.6157C12.9367 30.6631 13.0037 30.6954 13.0755 30.7097C13.1473 30.724 13.2216 30.7198 13.2913 30.6975C13.3611 30.6752 13.424 30.6354 13.4741 30.5821L14.4996 29.4851C14.6138 29.4974 14.7293 29.5074 14.8441 29.5173L15.6358 30.7959C15.6744 30.8583 15.7283 30.9098 15.7924 30.9455C15.8565 30.9813 15.9287 31 16.0021 31C16.0754 31 16.1476 30.9813 16.2117 30.9455C16.2758 30.9098 16.3297 30.8583 16.3683 30.7959L17.16 29.5173C17.2772 29.5074 17.3903 29.4974 17.5045 29.4845L18.53 30.5821C18.5801 30.6354 18.643 30.6752 18.7128 30.6975C18.7825 30.7198 18.8568 30.724 18.9286 30.7097C19.0004 30.6954 19.0674 30.6631 19.1233 30.6157C19.1791 30.5684 19.222 30.5076 19.2478 30.4391L19.7752 29.0327C19.886 29.0005 19.9967 28.9694 20.1063 28.9343L21.3264 29.8132C21.3858 29.8562 21.4553 29.8831 21.5282 29.8916C21.601 29.9001 21.6748 29.8899 21.7426 29.8618C21.8104 29.8337 21.8698 29.7888 21.9153 29.7313C21.9608 29.6738 21.9909 29.6055 22.0026 29.5331L22.2458 28.0436C22.3466 27.9908 22.4479 27.9387 22.5476 27.8836L23.9199 28.5094C23.9867 28.5398 24.0602 28.5526 24.1333 28.5467C24.2064 28.5407 24.2768 28.5162 24.3378 28.4754C24.3988 28.4346 24.4484 28.3789 24.4818 28.3136C24.5152 28.2483 24.5314 28.1755 24.5288 28.1022L24.4755 26.5891C24.5622 26.5192 24.6481 26.4487 24.7333 26.3776L26.2071 26.7251C26.2785 26.7417 26.353 26.7399 26.4235 26.7198C26.494 26.6997 26.5582 26.6619 26.61 26.61C26.6619 26.5582 26.6997 26.494 26.7198 26.4235C26.7399 26.353 26.7417 26.2785 26.7251 26.2071L26.3776 24.7327C26.4491 24.6479 26.5196 24.562 26.5891 24.4749L28.1022 24.5282C28.1756 24.5315 28.2486 24.5156 28.3141 24.4821C28.3795 24.4486 28.4351 24.3987 28.4754 24.3372C28.5162 24.2762 28.5407 24.2058 28.5467 24.1327C28.5526 24.0596 28.5398 23.9861 28.5094 23.9194L27.8836 22.547C27.9387 22.4474 27.9908 22.346 28.0436 22.2452L29.5331 22.002C29.6055 21.9902 29.6737 21.9602 29.7312 21.9147C29.7887 21.8692 29.8336 21.8097 29.8617 21.742C29.8898 21.6743 29.9002 21.6005 29.8918 21.5277C29.8834 21.4548 29.8566 21.3853 29.8138 21.3258L28.9348 20.1052C28.9694 19.9956 29.0011 19.8848 29.0327 19.7741L30.4391 19.2467C30.5077 19.2209 30.5686 19.1781 30.6161 19.1223C30.6635 19.0664 30.6959 18.9994 30.7103 18.9275C30.7246 18.8557 30.7203 18.7813 30.6979 18.7116C30.6754 18.6418 30.6356 18.5789 30.5821 18.5288L29.4851 17.5034C29.4974 17.3891 29.5074 17.2742 29.5173 17.1594L30.7959 16.3677C30.8583 16.3291 30.9098 16.2752 30.9455 16.2111C30.9813 16.147 31 16.0748 31 16.0015C31 15.9281 30.9813 15.8559 30.9455 15.7918C30.9098 15.7277 30.8583 15.6738 30.7959 15.6352H30.7989ZM21.9504 23.1992C21.7391 23.1538 21.5183 23.1942 21.3368 23.3116C21.1552 23.429 21.0278 23.6137 20.9824 23.825L20.5347 25.9152C19.0943 26.5677 17.53 26.9017 15.9487 26.8942C14.3674 26.8867 12.8063 26.538 11.3721 25.8719L10.9244 23.7822C10.9022 23.6778 10.8597 23.5788 10.7992 23.4908C10.7387 23.4028 10.6614 23.3276 10.5719 23.2695C10.4823 23.2113 10.3821 23.1714 10.2771 23.152C10.1721 23.1326 10.0643 23.1341 9.95991 23.1564L8.11346 23.5525C7.77098 23.1991 7.45266 22.823 7.16064 22.4268H16.1362C16.237 22.4268 16.3056 22.4098 16.3056 22.3149V19.1394C16.3056 19.0474 16.237 19.0275 16.1362 19.0275H13.5093L13.5122 17.0146H16.3531C16.6115 17.0146 17.7395 17.0896 18.0987 18.5306C18.2106 18.973 18.4603 20.414 18.6296 20.8746C18.799 21.3914 19.4852 22.4251 20.2177 22.4251H24.8499C24.5395 22.841 24.1999 23.2344 23.8338 23.6023L21.9504 23.1992ZM23.4605 25.2203C23.4605 25.3968 23.4082 25.5693 23.3102 25.7161C23.2122 25.8629 23.0729 25.9774 22.9099 26.045C22.7469 26.1127 22.5675 26.1306 22.3943 26.0964C22.2212 26.0621 22.062 25.9774 21.937 25.8528C21.812 25.7282 21.7267 25.5693 21.692 25.3963C21.6572 25.2232 21.6744 25.0438 21.7416 24.8805C21.8087 24.7173 21.9227 24.5776 22.0692 24.4791C22.2157 24.3807 22.388 24.3278 22.5646 24.3272H22.5903C22.8227 24.3338 23.0434 24.4308 23.2054 24.5976C23.3674 24.7643 23.4578 24.9878 23.4576 25.2203H23.4605ZM10.2394 25.1804C10.2393 25.357 10.1869 25.5296 10.0887 25.6763C9.9905 25.8231 9.85102 25.9375 9.68786 26.005C9.5247 26.0725 9.34519 26.0902 9.17201 26.0557C8.99883 26.0212 8.83976 25.9362 8.7149 25.8113C8.59004 25.6864 8.505 25.5274 8.47052 25.3542C8.43604 25.181 8.45368 25.0015 8.5212 24.8383C8.58872 24.6752 8.70309 24.5357 8.84986 24.4375C8.99663 24.3393 9.16922 24.2869 9.34579 24.2868H9.37216C9.60405 24.2944 9.8239 24.3919 9.9852 24.5587C10.1465 24.7254 10.2366 24.9484 10.2365 25.1804H10.2394ZM5.07686 14.7211L7.00066 13.8655C7.0984 13.8222 7.18665 13.7601 7.26035 13.6826C7.33405 13.6052 7.39176 13.514 7.43019 13.4142C7.46861 13.3145 7.48699 13.2081 7.48428 13.1013C7.48156 12.9944 7.45781 12.8891 7.41437 12.7914L7.01766 11.8995H8.57405V18.9156H5.43314C5.04536 17.5534 4.92438 16.1291 5.07686 14.7211ZM4.41703 12.608C4.41696 12.4907 4.43998 12.3746 4.48479 12.2662C4.5296 12.1578 4.59531 12.0593 4.67819 11.9763C4.76106 11.8934 4.85947 11.8275 4.96779 11.7826C5.07611 11.7376 5.19222 11.7144 5.3095 11.7144H5.33645C5.51192 11.7193 5.68204 11.7759 5.82555 11.877C5.96906 11.9781 6.07959 12.1192 6.14334 12.2828C6.20708 12.4463 6.22121 12.625 6.18396 12.7966C6.14671 12.9681 6.05973 13.1249 5.93389 13.2473C5.80805 13.3696 5.64893 13.4522 5.47642 13.4847C5.30391 13.5172 5.12565 13.4981 4.96393 13.4298C4.80221 13.3615 4.6642 13.2471 4.56714 13.1008C4.47008 12.9546 4.41828 12.783 4.41821 12.6074L4.41703 12.608ZM13.5093 14.0431L13.5122 11.9734H17.2192C17.4114 11.9734 18.571 12.1943 18.571 13.0645C18.571 13.7847 17.6809 14.0431 16.949 14.0431H13.5093ZM24.3811 18.973C23.8068 19.0392 23.1722 18.7316 23.0919 18.3818C22.7532 16.4779 22.1901 16.073 21.3006 15.3698C22.4057 14.6695 23.5543 13.6329 23.5543 12.2488C23.5543 10.7533 22.5294 9.81166 21.8315 9.34931C20.8494 8.70472 19.7641 8.57405 19.4717 8.57405H7.81636C9.42798 6.77339 11.5883 5.55431 13.9628 5.10557L15.3381 6.54711C15.4117 6.62451 15.4998 6.68661 15.5974 6.72982C15.6951 6.77303 15.8003 6.79652 15.907 6.79891C16.0138 6.80131 16.1199 6.78257 16.2194 6.74378C16.3189 6.70499 16.4097 6.64691 16.4867 6.57289L18.0255 5.10792C19.593 5.40155 21.0779 6.03289 22.3769 6.95809C23.6759 7.88329 24.7579 9.08018 25.5478 10.4656L24.493 12.843C24.4073 13.0407 24.4029 13.2642 24.4806 13.4652C24.5584 13.6662 24.7121 13.8285 24.9085 13.9171L26.9354 14.8154C26.9986 15.4491 27.0065 16.0872 26.9589 16.7222H25.8291C25.7172 16.7222 25.6715 16.7967 25.6715 16.9056V17.4225C25.6703 18.6384 24.9853 18.9068 24.3811 18.973ZM15.0639 4.52837C15.0643 4.29213 15.1584 4.0657 15.3254 3.89865C15.4925 3.7316 15.7189 3.63755 15.9552 3.63708H15.9815C16.1571 3.64192 16.3274 3.69843 16.471 3.79953C16.6146 3.90063 16.7252 4.04184 16.789 4.2055C16.8528 4.36915 16.8669 4.54797 16.8296 4.7196C16.7922 4.89123 16.7051 5.04804 16.5791 5.17041C16.4531 5.29278 16.2939 5.37529 16.1212 5.4076C15.9486 5.43991 15.7702 5.42059 15.6085 5.35207C15.4468 5.28355 15.3089 5.16886 15.212 5.02235C15.1151 4.87584 15.0636 4.70401 15.0639 4.52837ZM26.5985 13.5403C26.4812 13.5403 26.3651 13.5172 26.2567 13.4723C26.1484 13.4274 26.05 13.3617 25.967 13.2787C25.8841 13.1958 25.8183 13.0974 25.7734 12.989C25.7286 12.8807 25.7055 12.7645 25.7055 12.6473C25.7055 12.53 25.7286 12.4139 25.7734 12.3055C25.8183 12.1972 25.8841 12.0987 25.967 12.0158C26.05 11.9329 26.1484 11.8671 26.2567 11.8222C26.3651 11.7773 26.4812 11.7542 26.5985 11.7542H26.6243C26.8611 11.7576 27.0869 11.855 27.252 12.0249C27.4171 12.1948 27.5079 12.4233 27.5044 12.6602C27.501 12.897 27.4037 13.1228 27.2338 13.2879C27.0639 13.4529 26.8354 13.5437 26.5985 13.5403Z"
            fill="black" />
    </g>
    <g id="ts">
        <path fill-rule="evenodd" clip-rule="evenodd"
            d="M3.125 0H28.875C30.6009 0 32 1.39911 32 3.125V28.875C32 30.6009 30.6009 32 28.875 32H3.125C1.39911 32 0 30.6009 0 28.875V3.125C0 1.39911 1.39911 0 3.125 0ZM19.8087 28.5928V25.464C20.376 25.9399 20.9923 26.2967 21.6574 26.5346C22.3226 26.7726 22.9942 26.8915 23.6724 26.8915C24.0702 26.8915 24.4174 26.8557 24.7141 26.7839C25.0108 26.7122 25.2586 26.6129 25.4575 26.4858C25.6564 26.3586 25.8048 26.2087 25.9026 26.036C26.0004 25.8632 26.0493 25.6759 26.0493 25.4738C26.0493 25.2 25.9711 24.9556 25.8146 24.7405C25.658 24.5254 25.4444 24.3266 25.1738 24.1441C24.9033 23.9616 24.5821 23.7856 24.2104 23.6161C23.8387 23.4466 23.4376 23.2739 23.0072 23.0979C21.9117 22.6416 21.0949 22.0843 20.557 21.4259C20.019 20.7676 19.75 19.9723 19.75 19.0402C19.75 18.3101 19.8967 17.6827 20.1902 17.1581C20.4836 16.6333 20.883 16.2015 21.3884 15.8625C21.8938 15.5236 22.4791 15.2742 23.1442 15.1146C23.8093 14.9549 24.5136 14.875 25.257 14.875C25.9873 14.875 26.6346 14.919 27.1986 15.007C27.7627 15.095 28.2828 15.2303 28.7588 15.4128V18.3363C28.524 18.1733 28.2681 18.0299 27.9909 17.906C27.7138 17.7822 27.4285 17.6795 27.1351 17.598C26.8416 17.5166 26.5498 17.4563 26.2596 17.4171C25.9694 17.3781 25.6939 17.3585 25.4331 17.3585C25.0744 17.3585 24.7484 17.3927 24.4549 17.4611C24.1614 17.5296 23.9137 17.6258 23.7115 17.7496C23.5094 17.8734 23.3529 18.0217 23.242 18.1944C23.1311 18.3672 23.0757 18.5611 23.0757 18.7762C23.0757 19.0109 23.1377 19.2211 23.2616 19.4069C23.3854 19.5926 23.5615 19.7686 23.7897 19.9349C24.018 20.1011 24.2951 20.264 24.6212 20.4237C24.9472 20.5834 25.3157 20.748 25.7265 20.9175C26.2873 21.1521 26.7911 21.4014 27.2377 21.6654C27.6844 21.9294 28.0676 22.2277 28.3871 22.5601C28.7066 22.8926 28.9511 23.2723 29.1207 23.6992C29.2902 24.1261 29.375 24.6231 29.375 25.1903C29.375 25.9724 29.2266 26.6291 28.9299 27.1604C28.6332 27.6916 28.2306 28.1219 27.7219 28.451C27.2133 28.7802 26.6215 29.0165 25.9466 29.1599C25.2716 29.3033 24.5593 29.375 23.8093 29.375C23.0398 29.375 22.3079 29.3098 21.6134 29.1794C20.9189 29.0491 20.3173 28.8536 19.8087 28.5928ZM18.5625 17.7551H14.5487V29.1875H11.3691V17.7551H7.375V15.1875H18.5625V17.7551Z"
            fill="black" />
    </g>
    <g id="vue">
        <path
            d="M-0.000488281 0L15.9991 27.9998L31.9987 0H25.5989L15.9991 16.7995L6.39935 0H-0.000488281Z"
            fill="black" />
        <path
            d="M16.4333 6.71426L19.9843 0.5H25.5989H31.1371L15.9991 26.992L0.861094 0.5H6.39941H12.014L15.5651 6.71426L15.9992 7.47398L16.4333 6.71426Z"
            fill="none"
            stroke="black" stroke-width="1" />
    </g>
    <g id="wasm">
        <path
            d="M19.6601 0.172549V0H32V32H0V0H12.3221V0.172549C12.3221 2.19869 13.9644 3.84157 15.9911 3.84157C18.0173 3.84157 19.6601 2.19922 19.6601 0.172549Z"
            fill="black" />
        <path fill-rule="evenodd" clip-rule="evenodd"
            d="M22.4757 17.2449H25.819L29.1392 28.5751H26.9515L26.2294 26.0538H22.4208L21.8634 28.5751H19.7327L22.4757 17.2449ZM22.8234 24.1944L23.7484 20.0376H24.6404L25.7024 24.1944H22.8234Z"
            fill="white" />
        <path
            d="M7.43311 17.2449H9.55389L11.0017 24.9557H11.0279L12.768 17.2449H14.7518L16.3236 25.0504H16.3544L18.0046 17.2449H20.0846L17.3819 28.5751H15.2773L13.7186 20.8642H13.6778L12.0093 28.5751H9.86552L7.43311 17.2449Z"
            fill="white" />
    </g>
</svg>